<?xml version="1.0" encoding="UTF-8" standalone="no"?>
<!DOCTYPE svg PUBLIC "-//W3C//DTD SVG 1.1//EN" "http://www.w3.org/Graphics/SVG/1.1/DTD/svg11.dtd">
<svg width="100%" height="100%" viewBox="0 0 1625 419" version="1.1" xmlns="http://www.w3.org/2000/svg" xmlns:xlink="http://www.w3.org/1999/xlink" xml:space="preserve" xmlns:serif="http://www.serif.com/" style="fill-rule:evenodd;clip-rule:evenodd;stroke-linejoin:round;stroke-miterlimit:2;">
    <g>
        <path d="M564.2,132.4C564.2,117.8 562.7,111.4 555.5,111.4C546.9,111.4 546.2,120.4 546.2,146.6C546.2,176.3 547.1,184 556,184C563.8,184 564.9,174 564.9,158.5L585.6,158.5L585.6,162C585.6,183.6 580.1,199.7 553.6,199.7C526.2,199.7 524,177.1 524,147C524,121.3 525.4,95.7 555.7,95.7C574.6,95.7 584.9,104.7 584.9,128.2L584.9,132.4L564.2,132.4Z" style="fill-rule:nonzero;"/>
        <path d="M593.9,145.1C594,134.6 596.7,128.6 601.7,124.8C606.7,121 612.3,119.9 621,119.9C638,119.9 645.5,126.2 645.5,142.3L645.5,181.3C645.5,187.1 645.5,194.3 647.9,197.7L628,197.7C627.1,195 627,191.9 626.9,189L626.6,189C623.7,195.7 617.4,199.7 610.4,199.7C598.7,199.7 592,193 592,176.6C592,167.6 595.3,160.5 600.4,157.2C605.5,154 613.2,152.7 618.9,151C625.2,149 626.3,148.1 626.3,142.3C626.3,137.7 624.4,134.7 619.8,134.7C614.1,134.7 612.4,138.5 612.3,145.1L593.9,145.1ZM617.9,184C622.4,184 626.2,181.3 626.2,173.6C626.2,167.3 626.3,163.5 626.3,160.3C619.8,164.1 617,164.2 615.1,165.9C612.9,167.7 611.9,170 611.9,174.3C611.9,180.3 613.9,184 617.9,184Z" style="fill-rule:nonzero;"/>
    </g>
    <g>
        <path d="M656.7,121.8L676.6,121.8L676.6,132.5L676.9,132.5C679.6,125.8 684.8,119.9 693.5,119.9L695,119.9C695.5,119.9 696.1,120 696.8,120.2L696.8,141.5C694.8,141.1 693.1,140.9 691.1,140.9C682.8,140.9 677.4,144.5 677.4,154.6L677.4,197.7L656.7,197.7L656.7,121.8Z" style="fill-rule:nonzero;"/>
        <path d="M703.4,97.6L724.1,97.6L724.1,130.1L724.4,130.1C727.8,122.1 734.1,119.9 739.8,119.9C756.7,119.9 759.8,136.9 759.8,160.4C759.8,188.7 752.3,199.7 738.5,199.7C729.4,199.7 724.8,193.5 723.6,188.5L723.3,188.5L723.3,197.8L703.4,197.8L703.4,97.6ZM731.1,183.1C738.8,183.1 739.1,171.5 739.1,159.3C739.1,145.4 738.7,136.4 731.2,136.4C724.2,136.4 723.7,146.8 723.7,160.2C723.7,175 725,183.1 731.1,183.1Z" style="fill-rule:nonzero;"/>
        <path d="M766.8,160C766.8,137.3 771.4,119.9 795.3,119.9C820.5,119.9 823.8,136.9 823.8,159.6C823.8,182.3 819.2,199.7 795.3,199.7C770,199.7 766.8,182.7 766.8,160ZM795.4,134.8C789.3,134.8 787.5,141.4 787.5,159.8C787.5,178.3 789.3,184.9 795.4,184.9C801.8,184.9 803.1,178.6 803.1,159.9C803.1,141.1 801.8,134.8 795.4,134.8Z" style="fill-rule:nonzero;"/>
        <path d="M832.6,121.8L852.5,121.8L852.5,130.8L852.8,130.8C855.7,124.1 861.7,119.9 869.4,119.9C881.1,119.9 887.4,126.4 887.4,140.9L887.4,197.7L866.7,197.7L866.7,146C866.7,140.5 864.7,137.3 860.7,137.3C856.7,137.3 853.3,140.7 853.3,148.1L853.3,197.8L832.6,197.8L832.6,121.8Z" style="fill-rule:nonzero;"/>
    </g>
    <g>
        <path d="M946.2,116.7L926.9,116.7L926.9,97.6L986.7,97.6L986.7,116.7L967.6,116.7L967.6,197.8L946.2,197.8L946.2,116.7Z" style="fill-rule:nonzero;"/>
        <path d="M1004.1,163.4L1004.1,168.1C1004.1,179.9 1005.6,185.6 1011.6,185.6C1017.1,185.6 1018.6,181.3 1019.1,171.7L1038.2,171.7C1037.8,190.6 1028.6,199.6 1011.4,199.6C985.4,199.6 983.3,179.4 983.3,157C983.3,135.7 988.9,119.8 1011.4,119.8C1036.9,119.8 1038.8,137.6 1038.8,163.4L1004.1,163.4ZM1019.1,150.3C1019.1,139.6 1017.8,133.9 1012.1,133.9C1005.3,133.9 1004.2,140.1 1004.2,150.3L1019.1,150.3Z" style="fill-rule:nonzero;"/>
    </g>
    <g>
        <path d="M1081.2,150.5C1081.2,139.3 1078.9,134.8 1073.4,134.8C1066.6,134.8 1065.6,144.3 1065.6,159.9C1065.6,177.1 1066.6,184.9 1073.4,184.9C1079.5,184.9 1080.8,180.4 1081.2,166.9L1100.3,166.9C1100.2,190.3 1091.7,199.7 1073,199.7C1047,199.7 1044.9,179.5 1044.9,157.1C1044.9,135.8 1050.5,119.9 1073,119.9C1094.8,119.9 1100.3,132.4 1100.3,150.5L1081.2,150.5Z" style="fill-rule:nonzero;"/>
        <path d="M1108.3,97.6L1129,97.6L1129,130.1L1129.3,130.1C1132.7,122.7 1138,119.9 1145.1,119.9C1156.8,119.9 1163.1,126.4 1163.1,140.9L1163.1,197.7L1142.4,197.7L1142.4,146C1142.4,140.5 1140.4,137.3 1136.4,137.3C1132.4,137.3 1129,140.7 1129,148.1L1129,197.8L1108.3,197.8L1108.3,97.6Z" style="fill-rule:nonzero;"/>
        <path d="M1174,121.8L1193.9,121.8L1193.9,130.8L1194.2,130.8C1197.1,124.1 1203.1,119.9 1210.8,119.9C1222.5,119.9 1228.8,126.4 1228.8,140.9L1228.8,197.7L1208.1,197.7L1208.1,146C1208.1,140.5 1206.1,137.3 1202.1,137.3C1198.1,137.3 1194.7,140.7 1194.7,148.1L1194.7,197.8L1174,197.8L1174,121.8Z" style="fill-rule:nonzero;"/>
        <path d="M1237.5,160C1237.5,137.3 1242.1,119.9 1266,119.9C1291.2,119.9 1294.5,136.9 1294.5,159.6C1294.5,182.3 1289.9,199.7 1266,199.7C1240.7,199.7 1237.5,182.7 1237.5,160ZM1266.1,134.8C1260,134.8 1258.2,141.4 1258.2,159.8C1258.2,178.3 1260,184.9 1266.1,184.9C1272.5,184.9 1273.8,178.6 1273.8,159.9C1273.7,141.1 1272.4,134.8 1266.1,134.8Z" style="fill-rule:nonzero;"/>
        <rect x="1303.6" y="97.6" width="20.7" height="100.1" style="fill-rule:nonzero;"/>
        <path d="M1333.6,160C1333.6,137.3 1338.2,119.9 1362.1,119.9C1387.3,119.9 1390.6,136.9 1390.6,159.6C1390.6,182.3 1386,199.7 1362.1,199.7C1336.8,199.7 1333.6,182.7 1333.6,160ZM1362.2,134.8C1356.1,134.8 1354.3,141.4 1354.3,159.8C1354.3,178.3 1356.1,184.9 1362.2,184.9C1368.6,184.9 1369.9,178.6 1369.9,159.9C1369.8,141.1 1368.6,134.8 1362.2,134.8Z" style="fill-rule:nonzero;"/>
        <path d="M1434.9,121.8L1454,121.8L1454,195C1454,212.3 1447.1,223.5 1425.3,223.5C1405.3,223.5 1399.4,213.8 1399.4,202.5L1418.6,202.5C1419,204.6 1419.7,206.1 1420.8,207.1C1422.2,208.1 1423.9,208.6 1425.9,208.6C1432.7,208.6 1434.2,203.7 1434.2,189.2L1434.2,184.6L1433.9,184.6C1431,193.4 1424.7,195.8 1417.6,195.8C1402.8,195.8 1398.2,179.5 1398.2,158.6C1398.2,140.6 1400.5,119.7 1418.4,119.7C1427.7,119.7 1432.3,125 1434.7,131.9L1435,131.9L1434.9,121.8ZM1426.4,179.4C1432,179.4 1434.2,174.9 1434.2,157.8C1434.2,143.8 1432.7,137.3 1426.7,137.3C1419.9,137.3 1418.9,146 1418.9,158.5C1418.9,174.3 1420.8,179.4 1426.4,179.4Z" style="fill-rule:nonzero;"/>
        <path d="M1460.6,121.8L1482,121.8L1490.4,175L1490.7,175L1498.7,121.8L1519.4,121.8L1500.9,198.2C1496.2,217.7 1491.2,222.3 1475.2,222.3L1470.5,222.3C1469.1,222.3 1467.7,222.2 1466.3,222L1466.3,206C1468,206.4 1469.7,206.6 1471.4,206.6C1475.4,206.6 1478.9,204.8 1480.1,198.2L1460.6,121.8Z" style="fill-rule:nonzero;"/>
    </g>
    <g>
        <path d="M526.1,237.8L562.1,237.8C580.4,237.8 586.6,250.1 586.6,263.9C586.6,278.5 581.4,285.6 571.3,288.3L571.3,288.6C585.1,290.8 585.6,300.1 586,313.6C586.4,333.4 587.2,335.3 590.1,336.7L590.1,338L567,338C565.3,334.6 564.7,329 564.7,317.7C564.7,300.3 562.5,296.7 555.8,296.7L547.6,296.7L547.6,338L526.2,338L526.1,237.8ZM547.6,280.1L554.2,280.1C562.9,280.1 565.2,273.1 565.2,267.1C565.2,259.7 562.6,254.5 554.1,254.5L547.6,254.5L547.6,280.1Z" style="fill-rule:nonzero;"/>
        <path d="M616,303.7L616,308.4C616,320.2 617.5,325.9 623.5,325.9C629,325.9 630.5,321.6 631,312L650.1,312C649.7,330.9 640.5,339.9 623.3,339.9C597.3,339.9 595.2,319.7 595.2,297.3C595.2,276 600.8,260.1 623.3,260.1C648.8,260.1 650.8,277.9 650.8,303.7L616,303.7ZM630.9,290.6C630.9,279.9 629.6,274.2 623.9,274.2C617.1,274.2 616,280.4 616,290.6L630.9,290.6Z" style="fill-rule:nonzero;"/>
        <path d="M673.9,313.9C674,317.3 674.3,320.2 675.3,322.5C676.4,324.6 678.2,326 681.7,326C686.7,326 689.1,322.6 689.1,318.3C689.1,314.8 687.7,311.4 681.2,309C664.2,302.7 656,299.2 656,283.1C656,267.9 665.6,260.2 682.3,260.2C701.6,260.2 707.3,270.7 707.3,281.5L707.3,284L689,284L689,282.6C689,276 686.7,274.2 682.2,274.2C676.7,274.2 675.2,277.1 675.2,281.2C675.2,294.5 708.3,285.7 708.3,315.1C708.3,330.4 699.1,339.9 681.9,339.9C663.4,339.9 655.6,332.3 655.6,317.2L655.6,313.8L673.9,313.8L673.9,313.9Z" style="fill-rule:nonzero;"/>
        <path d="M734.7,303.7L734.7,308.4C734.7,320.2 736.2,325.9 742.2,325.9C747.7,325.9 749.2,321.6 749.7,312L768.8,312C768.4,330.9 759.2,339.9 742,339.9C716,339.9 713.9,319.7 713.9,297.3C713.9,276 719.5,260.1 742,260.1C767.5,260.1 769.4,277.9 769.4,303.7L734.7,303.7ZM749.6,290.6C749.6,279.9 748.3,274.2 742.6,274.2C735.8,274.2 734.7,280.4 734.7,290.6L749.6,290.6Z" style="fill-rule:nonzero;"/>
        <path d="M776.4,285.4C776.5,274.9 779.2,268.9 784.2,265.1C789.2,261.3 794.8,260.2 803.5,260.2C820.5,260.2 828,266.5 828,282.6L828,321.6C828,327.4 828,334.6 830.4,338L810.5,338C809.6,335.3 809.5,332.2 809.4,329.3L809.1,329.3C806.2,336 799.9,340 792.9,340C781.2,340 774.5,333.3 774.5,316.9C774.5,307.9 777.8,300.8 782.9,297.5C788,294.3 795.7,293 801.4,291.3C807.7,289.3 808.8,288.4 808.8,282.6C808.8,278 806.9,275 802.3,275C796.6,275 794.9,278.8 794.8,285.4L776.4,285.4ZM800.4,324.2C804.9,324.2 808.7,321.5 808.7,313.8C808.7,307.5 808.8,303.7 808.8,300.5C802.3,304.3 799.5,304.4 797.6,306.1C795.4,307.9 794.4,310.2 794.4,314.5C794.4,320.6 796.5,324.2 800.4,324.2Z" style="fill-rule:nonzero;"/>
        <path d="M839.6,262.1L859.5,262.1L859.5,272.8L859.8,272.8C862.5,266.1 867.7,260.2 876.4,260.2L877.9,260.2C878.4,260.2 879,260.3 879.7,260.5L879.7,281.8C877.7,281.4 876,281.2 874,281.2C865.7,281.2 860.3,284.8 860.3,294.9L860.3,338L839.6,338L839.6,262.1Z" style="fill-rule:nonzero;"/>
    </g>
    <g>
        <path d="M922.2,290.7C922.2,279.5 919.9,275 914.4,275C907.6,275 906.6,284.5 906.6,300.1C906.6,317.3 907.6,325.1 914.4,325.1C920.5,325.1 921.8,320.6 922.2,307.1L941.3,307.1C941.2,330.5 932.7,339.9 914,339.9C888,339.9 885.9,319.7 885.9,297.3C885.9,276 891.5,260.1 914,260.1C935.8,260.1 941.3,272.6 941.3,290.7L922.2,290.7Z" style="fill-rule:nonzero;"/>
        <path d="M949.4,237.8L970.1,237.8L970.1,270.3L970.4,270.3C973.8,262.9 979.1,260.1 986.2,260.1C997.9,260.1 1004.2,266.6 1004.2,281.1L1004.2,338L983.5,338L983.5,286.2C983.5,280.7 981.5,277.5 977.5,277.5C973.5,277.5 970.1,280.9 970.1,288.3L970.1,338L949.4,338L949.4,237.8Z" style="fill-rule:nonzero;"/>
        <path d="M1048.8,237.8L1101.6,237.8L1101.6,256.9L1070.3,256.9L1070.3,277L1099.7,277L1099.7,296.1L1070.3,296.1L1070.3,338L1048.8,338L1048.8,237.8Z" style="fill-rule:nonzero;"/>
        <path d="M1106.9,300.3C1106.9,277.6 1111.5,260.2 1135.4,260.2C1160.6,260.2 1163.9,277.2 1163.9,299.9C1163.9,322.6 1159.3,340 1135.4,340C1110.1,340 1106.9,323 1106.9,300.3ZM1135.5,275C1129.4,275 1127.6,281.6 1127.6,300C1127.6,318.5 1129.4,325.1 1135.5,325.1C1141.9,325.1 1143.2,318.8 1143.2,300.1C1143.1,281.3 1141.9,275 1135.5,275Z" style="fill-rule:nonzero;"/>
        <path d="M1227.5,338L1207.6,338L1207.6,329L1207.3,329C1204.4,335.7 1198.4,339.9 1190.7,339.9C1179,339.9 1172.7,333.5 1172.7,318.9L1172.7,262.1L1193.4,262.1L1193.4,313.9C1193.4,319.4 1195.4,322.6 1199.4,322.6C1203.4,322.6 1206.8,319.2 1206.8,311.8L1206.8,262.2L1227.5,262.2L1227.5,338Z" style="fill-rule:nonzero;"/>
        <path d="M1238.6,262.1L1258.5,262.1L1258.5,271.1L1258.8,271.1C1261.7,264.4 1267.7,260.2 1275.4,260.2C1287.1,260.2 1293.4,266.7 1293.4,281.2L1293.4,338L1272.7,338L1272.7,286.2C1272.7,280.7 1270.7,277.5 1266.7,277.5C1262.7,277.5 1259.3,280.9 1259.3,288.3L1259.3,338L1238.6,338L1238.6,262.1Z" style="fill-rule:nonzero;"/>
        <path d="M1339.3,328.7L1339,328.7C1337.3,333.7 1333.4,339.9 1324.1,339.9C1310.3,339.9 1302.8,329 1302.8,300.6C1302.8,277 1306,260.1 1322.8,260.1C1328.5,260.1 1334.8,262.3 1338.2,270.3L1338.5,270.3L1338.5,237.8L1359.2,237.8L1359.2,338L1339.3,338L1339.3,328.7ZM1331.4,276.7C1323.9,276.7 1323.5,285.7 1323.5,299.6C1323.5,311.8 1323.9,323.4 1331.5,323.4C1337.6,323.4 1338.9,315.3 1338.9,300.5C1338.9,287.1 1338.4,276.7 1331.4,276.7Z" style="fill-rule:nonzero;"/>
        <path d="M1370,285.4C1370.1,274.9 1372.8,268.9 1377.8,265.1C1382.8,261.3 1388.4,260.2 1397.1,260.2C1414.1,260.2 1421.6,266.5 1421.6,282.6L1421.6,321.6C1421.6,327.4 1421.6,334.6 1424,338L1404,338C1403.1,335.3 1403,332.2 1402.8,329.3L1402.5,329.3C1399.6,336 1393.3,340 1386.3,340C1374.6,340 1367.9,333.3 1367.9,316.9C1367.9,307.9 1371.2,300.8 1376.3,297.5C1381.4,294.3 1389.1,293 1394.8,291.3C1401.1,289.3 1402.2,288.4 1402.2,282.6C1402.2,278 1400.3,275 1395.7,275C1390,275 1388.3,278.8 1388.2,285.4L1370,285.4ZM1394,324.2C1398.5,324.2 1402.3,321.5 1402.3,313.8C1402.3,307.5 1402.4,303.7 1402.4,300.5C1395.9,304.3 1393.1,304.4 1391.2,306.1C1389,307.9 1388,310.2 1388,314.5C1388,320.6 1390,324.2 1394,324.2Z" style="fill-rule:nonzero;"/>
        <path d="M1436.6,277.8L1428,277.8L1428,262.1L1436.6,262.1L1436.6,239.8L1457.3,239.8L1457.3,262.1L1466.9,262.1L1466.9,277.8L1457.3,277.8L1457.3,316.1C1457.3,321.6 1459,323.1 1463.9,323.1C1464.8,323.1 1465.9,323 1466.8,322.8L1466.8,338C1462.8,338.6 1458.9,338.8 1454.9,338.8C1440.5,338.8 1436.5,336 1436.5,318.3L1436.5,277.8L1436.6,277.8Z" style="fill-rule:nonzero;"/>
        <path d="M1474.4,236.7L1495.1,236.7L1495.1,254.1L1474.4,254.1L1474.4,236.7ZM1474.4,262.1L1495.1,262.1L1495.1,338L1474.4,338L1474.4,262.1Z" style="fill-rule:nonzero;"/>
        <path d="M1504.4,300.3C1504.4,277.6 1509,260.2 1532.9,260.2C1558,260.2 1561.4,277.2 1561.4,299.9C1561.4,322.6 1556.8,340 1532.9,340C1507.6,340 1504.4,323 1504.4,300.3ZM1533,275C1526.9,275 1525.1,281.6 1525.1,300C1525.1,318.5 1526.9,325.1 1533,325.1C1539.4,325.1 1540.7,318.8 1540.7,300.1C1540.6,281.3 1539.3,275 1533,275Z" style="fill-rule:nonzero;"/>
        <path d="M1570.2,262.1L1590.1,262.1L1590.1,271.1L1590.4,271.1C1593.3,264.4 1599.3,260.2 1607,260.2C1618.7,260.2 1625,266.7 1625,281.2L1625,338L1604.3,338L1604.3,286.2C1604.3,280.7 1602.3,277.5 1598.3,277.5C1594.3,277.5 1590.9,280.9 1590.9,288.3L1590.9,338L1570.2,338L1570.2,262.1Z" style="fill-rule:nonzero;"/>
    </g>
    <path d="M218.3,0L218.3,401.5C329.2,401.5 419.1,311.6 419.1,200.7C419,89.9 329.2,0 218.3,0ZM263.3,109.9C252.3,109.9 243.3,101 243.3,89.9C243.3,78.9 252.2,69.9 263.3,69.9C274.3,69.9 283.3,78.8 283.3,89.9C283.2,101 274.3,109.9 263.3,109.9ZM306.1,288.2C291.7,288.2 280,276.5 280,262.2C280,247.9 291.7,236.1 306.1,236.1C320.5,236.1 332.1,247.8 332.1,262.2C332.1,276.6 320.4,288.2 306.1,288.2Z" style="fill:url(#_Linear1);fill-rule:nonzero;"/>
    <path d="M0,218.3C0,329.1 89.9,419 200.8,419L200.8,17.5C89.9,17.5 0,107.4 0,218.3ZM130.2,265.4C108.8,265.4 91.5,248.1 91.5,226.7C91.5,205.3 108.8,188 130.2,188C151.6,188 168.9,205.3 168.9,226.7C168.9,248.1 151.6,265.4 130.2,265.4Z" style="fill:url(#_Linear2);fill-rule:nonzero;"/>
    <defs>
        <linearGradient id="_Linear1" x1="0" y1="0" x2="1" y2="0" gradientUnits="userSpaceOnUse" gradientTransform="matrix(2.45848e-14,-401.5,401.5,2.45848e-14,318.7,401.5)"><stop offset="0" style="stop-color:rgb(11,158,218);stop-opacity:1"/><stop offset="1" style="stop-color:rgb(129,211,239);stop-opacity:1"/></linearGradient>
        <linearGradient id="_Linear2" x1="0" y1="0" x2="1" y2="0" gradientUnits="userSpaceOnUse" gradientTransform="matrix(2.45848e-14,401.5,-401.5,2.45848e-14,100.4,17.5)"><stop offset="0" style="stop-color:rgb(174,218,180);stop-opacity:1"/><stop offset="1" style="stop-color:rgb(61,181,74);stop-opacity:1"/></linearGradient>
    </defs>
</svg>
