<?xml version="1.0" encoding="utf-8"?>
<!-- Generator: Adobe Illustrator 27.0.0, SVG Export Plug-In . SVG Version: 6.00 Build 0)  -->
<svg version="1.1" id="Layer_1" xmlns="http://www.w3.org/2000/svg" xmlns:xlink="http://www.w3.org/1999/xlink" x="0px" y="0px"
	 viewBox="0 0 1625 419" style="enable-background:new 0 0 1625 419;" xml:space="preserve">
<style type="text/css">
	.st0{fill:#FFFFFF;}
	.st1{fill:url(#SVGID_1_);}
	.st2{fill:url(#SVGID_00000035529970242391380630000000065026581257593770_);}
</style>
<g>
	<path class="st0" d="M564.2,132.4c0-14.6-1.5-21-8.7-21c-8.6,0-9.3,9-9.3,35.2c0,29.7,0.9,37.4,9.8,37.4c7.8,0,8.9-10,8.9-25.5
		h20.7v3.5c0,21.6-5.5,37.7-32,37.7c-27.4,0-29.6-22.6-29.6-52.7c0-25.7,1.4-51.3,31.7-51.3c18.9,0,29.2,9,29.2,32.5v4.2
		L564.2,132.4L564.2,132.4z"/>
	<path class="st0" d="M593.9,145.1c0.1-10.5,2.8-16.5,7.8-20.3s10.6-4.9,19.3-4.9c17,0,24.5,6.3,24.5,22.4v39c0,5.8,0,13,2.4,16.4
		H628c-0.9-2.7-1-5.8-1.1-8.7h-0.3c-2.9,6.7-9.2,10.7-16.2,10.7c-11.7,0-18.4-6.7-18.4-23.1c0-9,3.3-16.1,8.4-19.4
		c5.1-3.2,12.8-4.5,18.5-6.2c6.3-2,7.4-2.9,7.4-8.7c0-4.6-1.9-7.6-6.5-7.6c-5.7,0-7.4,3.8-7.5,10.4L593.9,145.1L593.9,145.1z
		 M617.9,184c4.5,0,8.3-2.7,8.3-10.4c0-6.3,0.1-10.1,0.1-13.3c-6.5,3.8-9.3,3.9-11.2,5.6c-2.2,1.8-3.2,4.1-3.2,8.4
		C611.9,180.3,613.9,184,617.9,184z"/>
</g>
<g>
	<path class="st0" d="M656.7,121.8h19.9v10.7h0.3c2.7-6.7,7.9-12.6,16.6-12.6h1.5c0.5,0,1.1,0.1,1.8,0.3v21.3
		c-2-0.4-3.7-0.6-5.7-0.6c-8.3,0-13.7,3.6-13.7,13.7v43.1h-20.7L656.7,121.8L656.7,121.8z"/>
	<path class="st0" d="M703.4,97.6h20.7v32.5h0.3c3.4-8,9.7-10.2,15.4-10.2c16.9,0,20,17,20,40.5c0,28.3-7.5,39.3-21.3,39.3
		c-9.1,0-13.7-6.2-14.9-11.2h-0.3v9.3h-19.9V97.6z M731.1,183.1c7.7,0,8-11.6,8-23.8c0-13.9-0.4-22.9-7.9-22.9
		c-7,0-7.5,10.4-7.5,23.8C723.7,175,725,183.1,731.1,183.1z"/>
	<path class="st0" d="M766.8,160c0-22.7,4.6-40.1,28.5-40.1c25.2,0,28.5,17,28.5,39.7c0,22.7-4.6,40.1-28.5,40.1
		C770,199.7,766.8,182.7,766.8,160z M795.4,134.8c-6.1,0-7.9,6.6-7.9,25c0,18.5,1.8,25.1,7.9,25.1c6.4,0,7.7-6.3,7.7-25
		C803.1,141.1,801.8,134.8,795.4,134.8z"/>
	<path class="st0" d="M832.6,121.8h19.9v9h0.3c2.9-6.7,8.9-10.9,16.6-10.9c11.7,0,18,6.5,18,21v56.8h-20.7V146c0-5.5-2-8.7-6-8.7
		s-7.4,3.4-7.4,10.8v49.7h-20.7L832.6,121.8L832.6,121.8z"/>
</g>
<g>
	<path class="st0" d="M946.1,116.7h-19.2V97.6h59.8v19.1h-19.1v81.1h-21.4v-81.1H946.1z"/>
	<path class="st0" d="M1004.1,163.5v4.6c0,11.8,1.5,17.5,7.5,17.5c5.5,0,7-4.3,7.5-13.9h19.1c-0.4,18.9-9.6,27.9-26.8,27.9
		c-26,0-28.1-20.2-28.1-42.6c0-21.3,5.6-37.2,28.1-37.2c25.5,0,27.4,17.8,27.4,43.6h-34.7V163.5z M1019.1,150.3
		c0-10.7-1.3-16.4-7-16.4c-6.8,0-7.9,6.2-7.9,16.4H1019.1z"/>
</g>
<g>
	<path class="st0" d="M1081.2,150.5c0-11.2-2.3-15.7-7.8-15.7c-6.8,0-7.8,9.5-7.8,25.1c0,17.2,1,25,7.8,25c6.1,0,7.4-4.5,7.8-18
		h19.1c-0.1,23.4-8.6,32.8-27.3,32.8c-26,0-28.1-20.2-28.1-42.6c0-21.3,5.6-37.2,28.1-37.2c21.8,0,27.3,12.5,27.3,30.6H1081.2z"/>
	<path class="st0" d="M1108.3,97.6h20.7v32.5h0.3c3.4-7.4,8.7-10.2,15.8-10.2c11.7,0,18,6.5,18,21v56.8h-20.7V146c0-5.5-2-8.7-6-8.7
		s-7.4,3.4-7.4,10.8v49.7h-20.7L1108.3,97.6L1108.3,97.6z"/>
	<path class="st0" d="M1174,121.8h19.9v9h0.3c2.9-6.7,8.9-10.9,16.6-10.9c11.7,0,18,6.5,18,21v56.8h-20.7V146c0-5.5-2-8.7-6-8.7
		s-7.4,3.4-7.4,10.8v49.7H1174V121.8z"/>
	<path class="st0" d="M1237.5,160c0-22.7,4.6-40.1,28.5-40.1c25.2,0,28.5,17,28.5,39.7c0,22.7-4.6,40.1-28.5,40.1
		C1240.7,199.7,1237.5,182.7,1237.5,160z M1266.1,134.8c-6.1,0-7.9,6.6-7.9,25c0,18.5,1.8,25.1,7.9,25.1c6.4,0,7.7-6.3,7.7-25
		C1273.7,141.1,1272.4,134.8,1266.1,134.8z"/>
	<path class="st0" d="M1303.6,97.6h20.7v100.1h-20.7V97.6z"/>
	<path class="st0" d="M1333.6,160c0-22.7,4.6-40.1,28.5-40.1c25.2,0,28.5,17,28.5,39.7c0,22.7-4.6,40.1-28.5,40.1
		C1336.8,199.7,1333.6,182.7,1333.6,160z M1362.2,134.8c-6.1,0-7.9,6.6-7.9,25c0,18.5,1.8,25.1,7.9,25.1c6.4,0,7.7-6.3,7.7-25
		C1369.8,141.1,1368.6,134.8,1362.2,134.8z"/>
	<path class="st0" d="M1434.9,121.8h19.1V195c0,17.3-6.9,28.5-28.7,28.5c-20,0-25.9-9.7-25.9-21h19.2c0.4,2.1,1.1,3.6,2.2,4.6
		c1.4,1,3.1,1.5,5.1,1.5c6.8,0,8.3-4.9,8.3-19.4v-4.6h-0.3c-2.9,8.8-9.2,11.2-16.3,11.2c-14.8,0-19.4-16.3-19.4-37.2
		c0-18,2.3-38.9,20.2-38.9c9.3,0,13.9,5.3,16.3,12.2h0.3L1434.9,121.8L1434.9,121.8z M1426.4,179.4c5.6,0,7.8-4.5,7.8-21.6
		c0-14-1.5-20.5-7.5-20.5c-6.8,0-7.8,8.7-7.8,21.2C1418.9,174.3,1420.8,179.4,1426.4,179.4z"/>
	<path class="st0" d="M1460.6,121.8h21.4l8.4,53.2h0.3l8-53.2h20.7l-18.5,76.4c-4.7,19.5-9.7,24.1-25.7,24.1h-4.7
		c-1.4,0-2.8-0.1-4.2-0.3v-16c1.7,0.4,3.4,0.6,5.1,0.6c4,0,7.5-1.8,8.7-8.4L1460.6,121.8z"/>
</g>
<g>
	<path class="st0" d="M526.1,237.8h36c18.3,0,24.5,12.3,24.5,26.1c0,14.6-5.2,21.7-15.3,24.4v0.3c13.8,2.2,14.3,11.5,14.7,25
		c0.4,19.8,1.2,21.7,4.1,23.1v1.3H567c-1.7-3.4-2.3-9-2.3-20.3c0-17.4-2.2-21-8.9-21h-8.2V338h-21.4L526.1,237.8L526.1,237.8z
		 M547.6,280.1h6.6c8.7,0,11-7,11-13c0-7.4-2.6-12.6-11.1-12.6h-6.5V280.1z"/>
	<path class="st0" d="M616,303.8v4.6c0,11.8,1.5,17.5,7.5,17.5c5.5,0,7-4.3,7.5-13.9h19.1c-0.4,18.9-9.6,27.9-26.8,27.9
		c-26,0-28.1-20.2-28.1-42.6c0-21.3,5.6-37.2,28.1-37.2c25.5,0,27.5,17.8,27.5,43.6H616V303.8z M630.9,290.6c0-10.7-1.3-16.4-7-16.4
		c-6.8,0-7.9,6.2-7.9,16.4H630.9z"/>
	<path class="st0" d="M673.9,313.9c0.1,3.4,0.4,6.3,1.4,8.6c1.1,2.1,2.9,3.5,6.4,3.5c5,0,7.4-3.4,7.4-7.7c0-3.5-1.4-6.9-7.9-9.3
		c-17-6.3-25.2-9.8-25.2-25.9c0-15.2,9.6-22.9,26.3-22.9c19.3,0,25,10.5,25,21.3v2.5H689v-1.4c0-6.6-2.3-8.4-6.8-8.4
		c-5.5,0-7,2.9-7,7c0,13.3,33.1,4.5,33.1,33.9c0,15.3-9.2,24.8-26.4,24.8c-18.5,0-26.3-7.6-26.3-22.7v-3.4h18.3V313.9z"/>
	<path class="st0" d="M734.7,303.8v4.6c0,11.8,1.5,17.5,7.5,17.5c5.5,0,7-4.3,7.5-13.9h19.1c-0.4,18.9-9.6,27.9-26.8,27.9
		c-26,0-28.1-20.2-28.1-42.6c0-21.3,5.6-37.2,28.1-37.2c25.5,0,27.4,17.8,27.4,43.6h-34.7V303.8z M749.6,290.6
		c0-10.7-1.3-16.4-7-16.4c-6.8,0-7.9,6.2-7.9,16.4H749.6z"/>
	<path class="st0" d="M776.4,285.4c0.1-10.5,2.8-16.5,7.8-20.3s10.6-4.9,19.3-4.9c17,0,24.5,6.3,24.5,22.4v39c0,5.8,0,13,2.4,16.4
		h-19.9c-0.9-2.7-1-5.8-1.1-8.7h-0.3c-2.9,6.7-9.2,10.7-16.2,10.7c-11.7,0-18.4-6.7-18.4-23.1c0-9,3.3-16.1,8.4-19.4
		c5.1-3.2,12.8-4.5,18.5-6.2c6.3-2,7.4-2.9,7.4-8.7c0-4.6-1.9-7.6-6.5-7.6c-5.7,0-7.4,3.8-7.5,10.4L776.4,285.4L776.4,285.4z
		 M800.4,324.2c4.5,0,8.3-2.7,8.3-10.4c0-6.3,0.1-10.1,0.1-13.3c-6.5,3.8-9.3,3.9-11.2,5.6c-2.2,1.8-3.2,4.1-3.2,8.4
		C794.4,320.6,796.5,324.2,800.4,324.2z"/>
	<path class="st0" d="M839.6,262.1h19.9v10.7h0.3c2.7-6.7,7.9-12.6,16.6-12.6h1.5c0.5,0,1.1,0.1,1.8,0.3v21.3
		c-2-0.4-3.7-0.6-5.7-0.6c-8.3,0-13.7,3.6-13.7,13.7V338h-20.7L839.6,262.1L839.6,262.1z"/>
</g>
<g>
	<path class="st0" d="M922.2,290.7c0-11.2-2.3-15.7-7.8-15.7c-6.8,0-7.8,9.5-7.8,25.1c0,17.2,1,25,7.8,25c6.1,0,7.4-4.5,7.8-18h19.1
		c-0.1,23.4-8.6,32.8-27.3,32.8c-26,0-28.1-20.2-28.1-42.6c0-21.3,5.6-37.2,28.1-37.2c21.8,0,27.3,12.5,27.3,30.6L922.2,290.7
		L922.2,290.7z"/>
	<path class="st0" d="M949.4,237.8h20.7v32.5h0.3c3.4-7.4,8.7-10.2,15.8-10.2c11.7,0,18,6.5,18,21V338h-20.7v-51.8
		c0-5.5-2-8.7-6-8.7s-7.4,3.4-7.4,10.8V338h-20.7L949.4,237.8L949.4,237.8z"/>
	<path class="st0" d="M1048.9,237.8h52.7v19.1h-31.3V277h29.4v19.1h-29.4V338h-21.5V237.8H1048.9z"/>
	<path class="st0" d="M1106.9,300.3c0-22.7,4.6-40.1,28.5-40.1c25.2,0,28.5,17,28.5,39.7s-4.6,40.1-28.5,40.1
		C1110.1,340,1106.9,323,1106.9,300.3z M1135.5,275c-6.1,0-7.9,6.6-7.9,25c0,18.5,1.8,25.1,7.9,25.1c6.4,0,7.7-6.3,7.7-25
		C1143.1,281.3,1141.9,275,1135.5,275z"/>
	<path class="st0" d="M1227.5,338h-19.9v-9h-0.3c-2.9,6.7-8.9,10.9-16.6,10.9c-11.7,0-18-6.4-18-21v-56.8h20.7v51.8
		c0,5.5,2,8.7,6,8.7s7.4-3.4,7.4-10.8v-49.6h20.7L1227.5,338L1227.5,338z"/>
	<path class="st0" d="M1238.6,262.1h19.9v9h0.3c2.9-6.7,8.9-10.9,16.6-10.9c11.7,0,18,6.5,18,21V338h-20.7v-51.8c0-5.5-2-8.7-6-8.7
		s-7.4,3.4-7.4,10.8V338h-20.7L1238.6,262.1L1238.6,262.1z"/>
	<path class="st0" d="M1339.3,328.7h-0.3c-1.7,5-5.6,11.2-14.9,11.2c-13.8,0-21.3-10.9-21.3-39.3c0-23.6,3.2-40.5,20-40.5
		c5.7,0,12,2.2,15.4,10.2h0.3v-32.5h20.7V338h-19.9L1339.3,328.7L1339.3,328.7z M1331.4,276.7c-7.5,0-7.9,9-7.9,22.9
		c0,12.2,0.4,23.8,8,23.8c6.1,0,7.4-8.1,7.4-22.9C1338.9,287.1,1338.4,276.7,1331.4,276.7z"/>
	<path class="st0" d="M1370,285.4c0.1-10.5,2.8-16.5,7.8-20.3s10.6-4.9,19.3-4.9c17,0,24.5,6.3,24.5,22.4v39c0,5.8,0,13,2.4,16.4
		h-20c-0.9-2.7-1-5.8-1.2-8.7h-0.3c-2.9,6.7-9.2,10.7-16.2,10.7c-11.7,0-18.4-6.7-18.4-23.1c0-9,3.3-16.1,8.4-19.4
		c5.1-3.2,12.8-4.5,18.5-6.2c6.3-2,7.4-2.9,7.4-8.7c0-4.6-1.9-7.6-6.5-7.6c-5.7,0-7.4,3.8-7.5,10.4L1370,285.4L1370,285.4z
		 M1394,324.2c4.5,0,8.3-2.7,8.3-10.4c0-6.3,0.1-10.1,0.1-13.3c-6.5,3.8-9.3,3.9-11.2,5.6c-2.2,1.8-3.2,4.1-3.2,8.4
		C1388,320.6,1390,324.2,1394,324.2z"/>
	<path class="st0" d="M1436.6,277.8h-8.6v-15.7h8.6v-22.3h20.7v22.3h9.6v15.7h-9.6v38.3c0,5.5,1.7,7,6.6,7c0.9,0,2-0.1,2.9-0.3V338
		c-4,0.6-7.9,0.8-11.9,0.8c-14.4,0-18.4-2.8-18.4-20.5v-40.5H1436.6z"/>
	<path class="st0" d="M1474.4,236.7h20.7v17.4h-20.7V236.7z M1474.4,262.1h20.7V338h-20.7V262.1z"/>
	<path class="st0" d="M1504.4,300.3c0-22.7,4.6-40.1,28.5-40.1c25.1,0,28.5,17,28.5,39.7s-4.6,40.1-28.5,40.1
		C1507.6,340,1504.4,323,1504.4,300.3z M1533,275c-6.1,0-7.9,6.6-7.9,25c0,18.5,1.8,25.1,7.9,25.1c6.4,0,7.7-6.3,7.7-25
		C1540.6,281.3,1539.3,275,1533,275z"/>
	<path class="st0" d="M1570.2,262.1h19.9v9h0.3c2.9-6.7,8.9-10.9,16.6-10.9c11.7,0,18,6.5,18,21V338h-20.7v-51.8c0-5.5-2-8.7-6-8.7
		s-7.4,3.4-7.4,10.8V338h-20.7L1570.2,262.1L1570.2,262.1z"/>
</g>
<linearGradient id="SVGID_1_" gradientUnits="userSpaceOnUse" x1="318.7" y1="16.5" x2="318.7" y2="418" gradientTransform="matrix(1 0 0 -1 0 418)">
	<stop  offset="0" style="stop-color:#0B9EDA"/>
	<stop  offset="1" style="stop-color:#81D3EF"/>
</linearGradient>
<path class="st1" d="M218.3,0v401.5c110.9,0,200.8-89.9,200.8-200.8C419,89.9,329.2,0,218.3,0z M263.3,109.9c-11,0-20-8.9-20-20
	c0-11,8.9-20,20-20c11,0,20,8.9,20,20C283.2,101,274.3,109.9,263.3,109.9z M306.1,288.2c-14.4,0-26.1-11.7-26.1-26
	s11.7-26.1,26.1-26.1s26,11.7,26,26.1S320.4,288.2,306.1,288.2z"/>
<linearGradient id="SVGID_00000065057355791583812580000017944479345567462846_" gradientUnits="userSpaceOnUse" x1="100.4" y1="400.5" x2="100.4" y2="-1" gradientTransform="matrix(1 0 0 -1 0 418)">
	<stop  offset="0" style="stop-color:#AEDAB4"/>
	<stop  offset="1" style="stop-color:#3DB54A"/>
</linearGradient>
<path style="fill:url(#SVGID_00000065057355791583812580000017944479345567462846_);" d="M0,218.3C0,329.1,89.9,419,200.8,419V17.5
	C89.9,17.5,0,107.4,0,218.3z M130.2,265.4c-21.4,0-38.7-17.3-38.7-38.7s17.3-38.7,38.7-38.7s38.7,17.3,38.7,38.7
	S151.6,265.4,130.2,265.4z"/>
</svg>
